<svg xmlns="http://www.w3.org/2000/svg" viewBox="0 0 256 256">
  <defs>
    <linearGradient id="g" x1="0" y1="0" x2="1" y2="1"><stop offset="0" stop-color="#8b5cf6"/><stop offset="1" stop-color="#ec4899"/></linearGradient>
    <clipPath id="c"><rect x="0" y="0" width="224" height="143.19"/></clipPath>
  </defs>
  <rect width="256" height="256" rx="56" fill="url(#g)"/>
  <g transform="translate(22 60) scale(0.95)" clip-path="url(#c)"><path fill="#fff" d="M11.96,5.03C17.71.88,25.12-.71,32.1.29c6.43.92,12.45,3.92,17.43,8.06,4.62-1.06,9.22,3.46,8.71,8.05-.08.85-.44,1.64-.82,2.39.33,1.11.7,2.21,1.02,3.32,2.39-5.58,7.8-10.02,13.99-10.32,44.39-.77,88.79-1.53,133.17-2.75,2.39-.06,4.88.19,7,1.38,2.89,1.72,4.87,4.72,5.61,7.97.69,2.82.64,5.77.23,8.62-1.91,16.51-3.4,33.07-5.57,49.55-.32,2.58-.76,5.14-.87,7.74-.05,1.26.2,2.69,1.25,3.51,6.81,5.24,11.61,13,13.29,21.42.77,5.28-.53,10.74-3.22,15.31-1.59,2.74-3.71,5.12-6.06,7.22-3.76,3.16-8.44,5.05-13.17,6.2-4.97,1.11-10.11,1.45-15.19,1.13-7.49-.68-14.93-2.25-21.92-5.04-6.83-2.81-14.66-2.01-21.42.59-2.77,1.89-5.61,3.72-8.68,5.09-4.96,2.28-10.42,3.71-15.91,3.4-2.99-.16-5.95-.89-8.64-2.2-2.16-1-3.98-2.57-5.94-3.9-2.4,1.78-5.01,4.16-8.25,3.48,3.44-3.84,7.59-6.94,11.79-9.9,2.17-1.48,4.25-3.07,6.45-4.49.12,1.39-.22,2.83-1.17,3.87-1.36,1.58-3.25,2.54-4.84,3.86,2.3,2.22,5.36,3.34,8.3,4.4,4.09.53,8.32.1,12.23-1.24,2.22-.83,4.45-1.66,6.5-2.87,3.48-1.96,6.78-4.41,10.69-5.46,1.82-.42,3.61-.97,5.47-1.19,2.87-.36,5.8-.27,8.66.24,2.46.38,4.63,1.7,7.04,2.27,2.65.56,5.08,1.84,7.68,2.55,2.22.31,4.43.74,6.6,1.28,3.97.54,7.99.76,11.99.6,5.31-.27,10.75-1.23,15.39-3.95,4.94-2.88,9.1-7.55,10.38-13.23.52-2.1.34-4.27.37-6.42-.07-3.89-1.53-7.63-3.62-10.87-1.98-3.1-4.51-5.82-7.18-8.34-2.06,2.95-4.55,5.78-7.88,7.31-1.52.73-3.21.95-4.86,1.16-29.43,4.39-58.89,8.63-88.32,13.03,2.32,3.41,4.61,6.87,6.42,10.6-6.95,5.38-13.53,11.33-21.26,15.6-19.87-22.9-39.59-45.93-59.38-68.91-2.53-2.36-5.51-4.18-8.13-6.44-.99-.78-1.77-1.85-2.96-2.36-4.63-2.17-9.47-4.15-13.33-7.6-1.58.42-3.35.34-4.73-.62-2.37-1.59-3.67-4.31-4.47-6.97.53-.88,1.03-1.76,1.53-2.66C.11,36.82-.99,28.67.97,21.16c1.63-6.45,5.54-12.3,10.99-16.13M28.82,29.44c8.66-4.99,16.64-11.16,23.72-18.22-8.61,5.07-16.75,11.04-23.72,18.22M190.74,19.91c-35.91,1.48-71.83,2.47-107.75,3.79-6.35.21-12.11,5.9-12.02,12.33.18,3.62,1.03,7.17,1.83,10.7.87,3.58,1.57,7.19,2.27,10.81.39,1.96.92,3.94,2.01,5.64,9.79,14.94,19.59,29.88,29.34,44.85,27.69-3.78,55.35-7.76,83.03-11.57,5.4-.94,10.07-5.57,10.69-11.07,1.47-17.61,2.84-35.22,4.24-52.83.28-4.12-1.12-8.67-4.64-11.11-2.59-1.89-5.97-1.66-9.01-1.53M52.66,39.1c1.51,2.71,3.02,5.42,4.56,8.11,1.2-.96,2.41-1.92,3.62-2.89-1.35-2.76-2.66-5.54-3.99-8.31-1.4,1.02-2.79,2.05-4.18,3.08M59.1,48.77c14.32,20.18,28.5,40.46,42.88,60.6,1.79,2.41,3.4,4.96,5.31,7.28-1.12-1.89-2.38-3.69-3.56-5.54-14-21.48-28.12-42.87-42.21-64.29-.81.64-1.62,1.3-2.43,1.96M287.11,13.79c4.94-.84,10.03-.85,14.97,0-.01,18.37,0,36.74,0,55.11.02,2.5,0,5.07.8,7.47.44,1.42,1.52,2.71,3.01,3.09,2.22.6,4.57.37,6.8-.05,1.01,3.75,1.44,7.7,1,11.57-3.13.85-6.41.96-9.64.92-4.9-.13-10-1.9-13.2-5.76-2.92-3.63-3.66-8.46-3.72-12.99-.02-19.79,0-39.58,0-59.37M226.93,14.76c6.05-.56,12.13-.9,18.21-.97,4.97-.09,9.98.34,14.81,1.59,4.26,1.21,8.35,3.37,11.35,6.68,2.42,2.68,4.25,5.93,5.13,9.44,1.04,4.06,1.18,8.3.88,12.46-.31,3.93-1.27,7.9-3.42,11.25-2.16,3.59-5.36,6.52-9.12,8.38-3.77,1.96-8,2.71-12.18,3.15-3.37.34-6.77.36-10.14.06,0,8.16,0,16.33,0,24.49-5.13.73-10.37.69-15.49,0-.01-25.51.01-51.02-.01-76.54M242.43,26.95c0,9.02,0,18.03,0,27.05,2.12.28,4.26.21,6.39.14,3.75-.21,7.71-1.54,10.06-4.64,2.61-3.34,2.94-7.85,2.43-11.92-.46-3.8-2.61-7.52-6.09-9.28-3.93-2.01-8.52-1.85-12.79-1.36M126.86,31.22c15.26,9.51,30.56,18.95,45.8,28.51-15.49,11.09-30.51,22.82-45.8,34.18-.03-20.9-.06-41.79,0-62.69M321.35,38.28c5.53-1.88,11.35-2.92,17.19-3.07,5.31-.09,10.83.66,15.46,3.41,3.34,1.91,5.96,5.01,7.24,8.64,1.76,4.62,1.63,9.63,1.6,14.49,0,9.18,0,18.35,0,27.53-5.48,1.63-11.12,2.89-16.85,3.17-5.04.28-10.15.11-15.07-1.07-3.78-.94-7.47-2.82-9.95-5.9-1.94-2.35-3.04-5.31-3.36-8.33-.4-3.54-.21-7.3,1.41-10.53,1.93-3.79,5.44-6.58,9.35-8.12,6.27-2.51,13.19-2.58,19.82-1.98.06-2.19-.03-4.61-1.48-6.39-1.65-2.15-4.51-2.74-7.07-2.92-5.2-.51-10.41.45-15.33,2.09-1.13-2.19-2.17-4.46-2.61-6.89-.26-1.36-.32-2.75-.34-4.13M335.54,66.97c-1.94.81-3.47,2.57-3.82,4.66-.37,2.26-.25,4.92,1.46,6.63,1.83,1.97,4.64,2.48,7.21,2.58,2.62.25,5.23-.2,7.79-.69,0-4.66,0-9.32,0-13.98-4.18-.68-8.68-.96-12.65.8M366.61,36.48c3.06-.74,6.22-.64,9.35-.62,2.26.04,4.54.13,6.77.6,3.85,15.92,7.61,31.85,11.47,47.77,4.32-15.91,8.63-31.81,12.91-47.73,3.53-.7,7.14-.72,10.72-.6,1.47.07,2.93.3,4.38.58-6.63,21.92-13.25,43.85-19.88,65.77-1.23,4.34-2.91,8.83-6.39,11.87-2.81,2.48-6.62,3.33-10.27,3.52-4.04.24-8.1-.25-12-1.33-.38-3.74.57-7.46,1.94-10.91,2.77.78,5.71,1.07,8.56.63,1.68-.3,3.12-1.39,4.08-2.78,1.6-2.24,2.19-4.97,2.93-7.57-2.65-.16-5.52-.74-7.41-2.75-1.05-1.03-1.28-2.52-1.7-3.86-5.16-17.53-10.31-35.07-15.47-52.6"/></g>
</svg>
